# xmcd
#
# Track frame offsets:
#	150
#	16603
#	36565
#	57340
#	74413
#	91720
#	109430
#	130808
#	150535
#	168995
#	184873
#	202115
#
# Disc length: 2837 seconds
#
# Revision: 4
# Processed by: cddbd v1.5.2PL0 Copyright (c) Steve Scherf et al.
# Submitted via: audiograbber 1.83.01
#
DISCID=a30b130c
DTITLE=Marshall Tucker Band - Southern Spirit
DYEAR=1990
DGENRE=Southern Rock
TTITLE0=Stay In The Country
TTITLE1=Destruction (Confessions Of A Junkie)
TTITLE2=Ballad Of M.T.B.
TTITLE3=Chase The Memory
TTITLE4=County Road
TTITLE5=Why Can't You Love Me
TTITLE6=Special Lady
TTITLE7=No Mercy
TTITLE8=Love Will
TTITLE9=And The Hills
TTITLE10=Modern Day Man
TTITLE11=Closer Today
EXTD=
EXTT0=
EXTT1=
EXTT2=
EXTT3=
EXTT4=
EXTT5=
EXTT6=
EXTT7=
EXTT8=
EXTT9=
EXTT10=
EXTT11=
PLAYORDER=
